<?xml version="1.0" encoding="iso-8859-1"?>
<!-- Generator: Adobe Illustrator 16.0.4, SVG Export Plug-In . SVG Version: 6.00 Build 0)  -->
<!DOCTYPE svg PUBLIC "-//W3C//DTD SVG 1.1//EN" "http://www.w3.org/Graphics/SVG/1.1/DTD/svg11.dtd">
<svg version="1.1" id="Capa_1" xmlns="http://www.w3.org/2000/svg" xmlns:xlink="http://www.w3.org/1999/xlink" x="0px" y="0px"
	 width="31.001px" height="19.856px" viewBox="0 0 31.001 19.856" style="enable-background:new 0 0 31.001 19.856;"
	 xml:space="preserve">
<g>
	<path d="M20.369,14.914c0.098,0.098,0.226,0.146,0.354,0.146s0.256-0.049,0.354-0.146c0.195-0.195,0.195-0.512,0-0.707
		l-5.222-5.221c0,0,0,0-0.001-0.001l-0.353-0.353l-0.353,0.353c0,0,0,0-0.001,0.001l-5.222,5.221c-0.195,0.195-0.195,0.512,0,0.707
		c0.195,0.195,0.512,0.195,0.707,0l4.369-4.368v8.808c0,0.276,0.224,0.5,0.5,0.5s0.5-0.224,0.5-0.5v-8.808L20.369,14.914z"/>
	<path d="M25.316,5.769C24.085,2.306,20.835,0,17.134,0c-3.488,0-6.625,2.098-7.982,5.278c-0.639-0.296-1.334-0.45-2.04-0.45
		c-2.69,0-4.88,2.186-4.885,4.875C0.828,10.773,0,12.435,0,14.203c0,3.116,2.542,5.651,5.75,5.652c0.036,0,0.072,0.001,0.104,0.001
		c0.034,0,0.064,0,0.088-0.002h5.27c0.276,0,0.5-0.224,0.5-0.5c0-0.276-0.224-0.5-0.5-0.5H5.916c-0.049,0.003-0.1,0.001-0.149,0
		l-0.102-0.001C3.093,18.853,1,16.767,1,14.202c0-1.533,0.756-2.97,2.022-3.842l0.23-0.229L3.227,9.713
		c0-2.142,1.743-3.885,3.885-3.885c0.718,0,1.423,0.202,2.039,0.583L9.68,6.739l0.206-0.588c1.078-3.081,3.99-5.15,7.249-5.15
		c3.364,0,6.308,2.153,7.325,5.359l0.093,0.293l0.304,0.049c2.98,0.482,5.144,3.022,5.144,6.04c0,3.371-2.749,6.113-6.127,6.113
		h-4.085c-0.276,0-0.5,0.224-0.5,0.5c0,0.276,0.224,0.5,0.5,0.5h4.085c3.93,0,7.127-3.191,7.127-7.113
		C31,9.332,28.627,6.447,25.316,5.769z"/>
</g>
<g>
</g>
<g>
</g>
<g>
</g>
<g>
</g>
<g>
</g>
<g>
</g>
<g>
</g>
<g>
</g>
<g>
</g>
<g>
</g>
<g>
</g>
<g>
</g>
<g>
</g>
<g>
</g>
<g>
</g>
</svg>
