<?xml version="1.0" encoding="iso-8859-1"?>
<!-- Generator: Adobe Illustrator 16.0.4, SVG Export Plug-In . SVG Version: 6.00 Build 0)  -->
<!DOCTYPE svg PUBLIC "-//W3C//DTD SVG 1.1//EN" "http://www.w3.org/Graphics/SVG/1.1/DTD/svg11.dtd">
<svg version="1.1" id="Capa_1" xmlns="http://www.w3.org/2000/svg" xmlns:xlink="http://www.w3.org/1999/xlink" x="0px" y="0px"
	 width="30.999px" height="20.061px" viewBox="0 0 30.999 20.061" style="enable-background:new 0 0 30.999 20.061;"
	 xml:space="preserve">
<g>
	<path d="M15.854,19.707l5.222-5.221c0.194-0.195,0.194-0.512,0-0.707c-0.195-0.195-0.513-0.195-0.707,0l-4.368,4.368V9.339
		c0-0.276-0.225-0.5-0.5-0.5s-0.5,0.224-0.5,0.5v8.808l-4.368-4.368c-0.194-0.195-0.512-0.195-0.707,0
		c-0.194,0.195-0.194,0.512,0,0.707l5.222,5.221c0,0,0,0,0.002,0.001l0.353,0.353l0.353-0.353
		C15.854,19.707,15.854,19.707,15.854,19.707z"/>
	<path d="M25.317,5.769C24.086,2.306,20.835,0,17.134,0c-3.486,0-6.625,2.098-7.982,5.277c-0.639-0.295-1.334-0.45-2.039-0.45
		c-2.689,0-4.881,2.186-4.885,4.875C0.828,10.771,0,12.434,0,14.202c0,3.116,2.541,5.651,5.75,5.652
		c0.036,0,0.071,0.001,0.104,0.001s0.063,0,0.088-0.002h5.27c0.275,0,0.5-0.224,0.5-0.5c0-0.276-0.225-0.5-0.5-0.5H5.916
		c-0.05,0.002-0.099,0.001-0.147,0l-0.104-0.001C3.093,18.852,1,16.766,1,14.201c0-1.533,0.756-2.969,2.022-3.842l0.229-0.215
		L3.231,9.86C3.229,9.811,3.226,9.762,3.226,9.712c0-2.142,1.742-3.885,3.885-3.885c0.719,0,1.423,0.202,2.037,0.583l0.53,0.328
		l0.205-0.588C10.961,3.069,13.874,1,17.132,1c3.364,0,6.309,2.153,7.326,5.359l0.093,0.293l0.304,0.049
		c2.98,0.482,5.145,3.022,5.145,6.04c0,3.371-2.749,6.113-6.127,6.113h-4.085c-0.276,0-0.5,0.224-0.5,0.5c0,0.276,0.224,0.5,0.5,0.5
		h4.085c3.93,0,7.127-3.191,7.127-7.113C31.001,9.332,28.629,6.447,25.317,5.769z"/>
</g>
<g>
</g>
<g>
</g>
<g>
</g>
<g>
</g>
<g>
</g>
<g>
</g>
<g>
</g>
<g>
</g>
<g>
</g>
<g>
</g>
<g>
</g>
<g>
</g>
<g>
</g>
<g>
</g>
<g>
</g>
</svg>
